<?xml version="1.0" encoding="utf-8"?>
<!-- Generator: Adobe Illustrator 16.0.0, SVG Export Plug-In . SVG Version: 6.00 Build 0)  -->
<!DOCTYPE svg PUBLIC "-//W3C//DTD SVG 1.1//EN" "http://www.w3.org/Graphics/SVG/1.1/DTD/svg11.dtd">
<svg version="1.1" id="Layer_1" xmlns="http://www.w3.org/2000/svg" xmlns:xlink="http://www.w3.org/1999/xlink" x="0px" y="0px"
	 width="102.049px" height="16.165px" viewBox="0 0 102.049 16.165" enable-background="new 0 0 102.049 16.165"
	 xml:space="preserve">
<g>
	<path fill="#231F20" d="M11.97,8.318c0,2.476-0.672,4.368-2.016,5.677c-1.343,1.31-3.277,1.965-5.8,1.965H0V0.964h4.595
		c2.332,0,4.144,0.646,5.436,1.938C11.324,4.195,11.97,6,11.97,8.318z M10.124,8.38c0-1.956-0.491-3.429-1.472-4.421
		C7.67,2.968,6.212,2.472,4.277,2.472H1.744v11.98h2.123c2.079,0,3.641-0.512,4.688-1.533C9.601,11.896,10.124,10.384,10.124,8.38z"
		/>
	<path fill="#231F20" d="M20.72,15.96l-0.338-1.601H20.3c-0.561,0.704-1.12,1.181-1.677,1.431s-1.253,0.375-2.087,0.375
		c-1.115,0-1.988-0.287-2.621-0.861c-0.633-0.575-0.949-1.393-0.949-2.452c0-2.271,1.815-3.46,5.446-3.569l1.908-0.062V8.523
		c0-0.882-0.19-1.534-0.569-1.954s-0.986-0.631-1.821-0.631c-0.937,0-1.997,0.287-3.179,0.862l-0.523-1.303
		c0.554-0.301,1.161-0.537,1.821-0.708c0.66-0.171,1.321-0.256,1.984-0.256c1.34,0,2.333,0.297,2.98,0.892
		c0.646,0.595,0.969,1.549,0.969,2.862v7.672H20.72z M16.874,14.759c1.06,0,1.892-0.29,2.498-0.871
		c0.605-0.581,0.908-1.395,0.908-2.441v-1.016l-1.703,0.072c-1.354,0.048-2.33,0.258-2.928,0.631
		c-0.599,0.373-0.897,0.952-0.897,1.738c0,0.615,0.186,1.084,0.559,1.405S16.204,14.759,16.874,14.759z"/>
	<path fill="#231F20" d="M32.006,12.893c0,1.046-0.39,1.853-1.169,2.421c-0.779,0.567-1.874,0.852-3.282,0.852
		c-1.491,0-2.653-0.236-3.487-0.708v-1.579c0.54,0.273,1.12,0.488,1.738,0.646s1.215,0.235,1.79,0.235
		c0.889,0,1.572-0.141,2.051-0.425c0.479-0.284,0.718-0.716,0.718-1.298c0-0.438-0.189-0.812-0.569-1.123
		c-0.379-0.311-1.12-0.678-2.22-1.103c-1.046-0.39-1.79-0.729-2.231-1.021s-0.77-0.621-0.985-0.99s-0.323-0.811-0.323-1.323
		c0-0.916,0.373-1.639,1.118-2.169c0.745-0.53,1.768-0.794,3.067-0.794c1.21,0,2.393,0.246,3.549,0.738l-0.605,1.385
		c-1.128-0.465-2.151-0.698-3.067-0.698c-0.807,0-1.416,0.127-1.826,0.38s-0.615,0.602-0.615,1.046c0,0.301,0.077,0.558,0.23,0.77
		s0.402,0.414,0.744,0.605s0.999,0.468,1.969,0.831c1.333,0.486,2.234,0.975,2.703,1.467S32.006,12.147,32.006,12.893z"/>
	<path fill="#231F20" d="M41.274,15.96V8.688c0-0.917-0.208-1.6-0.625-2.051c-0.417-0.452-1.07-0.677-1.959-0.677
		c-1.183,0-2.046,0.322-2.59,0.964s-0.815,1.696-0.815,3.16v5.877h-1.703V0h1.703v4.831c0,0.581-0.027,1.063-0.082,1.446h0.103
		C35.64,5.737,36.117,5.312,36.736,5c0.619-0.311,1.325-0.466,2.118-0.466c1.375,0,2.405,0.326,3.092,0.979
		c0.688,0.653,1.031,1.69,1.031,3.113v7.334H41.274z"/>
	<path fill="#231F20" d="M50.637,4.534c1.477,0,2.624,0.504,3.441,1.513s1.226,2.436,1.226,4.283c0,1.846-0.412,3.279-1.236,4.303
		c-0.823,1.021-1.967,1.533-3.43,1.533c-0.732,0-1.4-0.136-2.005-0.406c-0.605-0.27-1.113-0.685-1.523-1.246h-0.123l-0.359,1.447
		h-1.221V0h1.703v3.877c0,0.869-0.027,1.648-0.082,2.338h0.082C47.901,5.094,49.078,4.534,50.637,4.534z M50.391,5.959
		c-1.163,0-2,0.333-2.513,1c-0.513,0.667-0.769,1.79-0.769,3.37c0,1.579,0.263,2.709,0.79,3.389
		c0.527,0.682,1.371,1.021,2.534,1.021c1.045,0,1.826-0.381,2.338-1.145c0.513-0.762,0.77-1.857,0.77-3.287
		c0-1.463-0.257-2.554-0.77-3.271S51.463,5.959,50.391,5.959z"/>
	<path fill="#231F20" d="M66.872,10.329c0,1.832-0.463,3.263-1.385,4.292c-0.924,1.029-2.199,1.544-3.826,1.544
		c-1.006,0-1.898-0.236-2.678-0.708s-1.381-1.149-1.805-2.03c-0.424-0.883-0.636-1.915-0.636-3.098c0-1.833,0.458-3.26,1.374-4.283
		c0.916-1.022,2.188-1.533,3.816-1.533c1.572,0,2.821,0.523,3.748,1.569C66.408,7.128,66.872,8.544,66.872,10.329z M58.307,10.329
		c0,1.436,0.287,2.529,0.861,3.281s1.418,1.129,2.533,1.129c1.114,0,1.961-0.375,2.539-1.123c0.577-0.749,0.866-1.845,0.866-3.287
		c0-1.43-0.289-2.515-0.866-3.257c-0.578-0.742-1.432-1.113-2.56-1.113c-1.114,0-1.956,0.366-2.523,1.098
		C58.59,7.789,58.307,8.879,58.307,10.329z"/>
	<path fill="#231F20" d="M75.866,15.96l-0.338-1.601h-0.082c-0.561,0.704-1.12,1.181-1.678,1.431
		c-0.557,0.25-1.252,0.375-2.086,0.375c-1.115,0-1.988-0.287-2.621-0.861c-0.633-0.575-0.949-1.393-0.949-2.452
		c0-2.271,1.816-3.46,5.447-3.569l1.907-0.062V8.523c0-0.882-0.19-1.534-0.569-1.954s-0.986-0.631-1.82-0.631
		c-0.938,0-1.997,0.287-3.18,0.862l-0.523-1.303c0.555-0.301,1.16-0.537,1.82-0.708s1.322-0.256,1.984-0.256
		c1.341,0,2.334,0.297,2.98,0.892s0.969,1.549,0.969,2.862v7.672H75.866z M72.02,14.759c1.06,0,1.893-0.29,2.498-0.871
		c0.604-0.581,0.907-1.395,0.907-2.441v-1.016l-1.702,0.072c-1.354,0.048-2.33,0.258-2.929,0.631s-0.897,0.952-0.897,1.738
		c0,0.615,0.186,1.084,0.559,1.405S71.35,14.759,72.02,14.759z"/>
	<path fill="#231F20" d="M84.362,4.513c0.5,0,0.947,0.041,1.344,0.123L85.47,6.215c-0.466-0.103-0.876-0.154-1.231-0.154
		c-0.909,0-1.688,0.37-2.333,1.108s-0.97,1.658-0.97,2.759v6.031h-1.702V4.718h1.405L80.834,6.8h0.082
		c0.416-0.731,0.919-1.296,1.508-1.692C83.012,4.711,83.658,4.513,84.362,4.513z"/>
	<path fill="#231F20" d="M93.983,14.452h-0.092c-0.787,1.142-1.963,1.713-3.529,1.713c-1.471,0-2.613-0.503-3.43-1.508
		c-0.818-1.006-1.227-2.435-1.227-4.287c0-1.854,0.41-3.293,1.23-4.319c0.82-1.025,1.963-1.538,3.426-1.538
		c1.525,0,2.695,0.554,3.508,1.661h0.133l-0.07-0.81l-0.041-0.79V0h1.703v15.96h-1.387L93.983,14.452z M90.577,14.739
		c1.164,0,2.006-0.316,2.529-0.949s0.785-1.652,0.785-3.062V10.37c0-1.594-0.266-2.73-0.795-3.411
		c-0.531-0.68-1.377-1.021-2.539-1.021c-0.998,0-1.762,0.388-2.293,1.164c-0.529,0.776-0.795,1.872-0.795,3.287
		c0,1.437,0.264,2.52,0.791,3.252C88.786,14.373,89.559,14.739,90.577,14.739z"/>
	<path fill="#231F20" d="M98.452,14.212c0-0.574,0.154-1.01,0.462-1.305c0.309-0.295,0.758-0.441,1.348-0.441
		c0.568,0,1.008,0.15,1.32,0.452c0.311,0.302,0.467,0.733,0.467,1.294c0,0.542-0.157,0.969-0.473,1.28
		c-0.314,0.312-0.754,0.468-1.314,0.468c-0.576,0-1.021-0.152-1.336-0.457C98.609,15.198,98.452,14.768,98.452,14.212z"/>
</g>
</svg>
