<?xml version="1.0" encoding="utf-8"?>
<!-- Generator: Adobe Illustrator 16.0.0, SVG Export Plug-In . SVG Version: 6.00 Build 0)  -->
<!DOCTYPE svg PUBLIC "-//W3C//DTD SVG 1.1//EN" "http://www.w3.org/Graphics/SVG/1.1/DTD/svg11.dtd">
<svg version="1.1" id="Layer_1" xmlns="http://www.w3.org/2000/svg" xmlns:xlink="http://www.w3.org/1999/xlink" x="0px" y="0px"
	 width="82.487px" height="16.38px" viewBox="0 0 82.487 16.38" enable-background="new 0 0 82.487 16.38" xml:space="preserve">
<g>
	<path d="M7.59,6.166H3.72v9.938H2.014V6.166H0V5.395l2.014-0.617V4.151C2.014,1.384,3.224,0,5.642,0
		c0.596,0,1.295,0.12,2.096,0.359L7.296,1.726C6.639,1.514,6.077,1.408,5.611,1.408c-0.644,0-1.12,0.214-1.429,0.642
		C3.875,2.478,3.72,3.165,3.72,4.11V4.84h3.87V6.166z"/>
	<path d="M12.729,4.634c0.5,0,0.949,0.042,1.346,0.124L13.838,6.34c-0.466-0.103-0.877-0.154-1.233-0.154
		c-0.912,0-1.69,0.37-2.338,1.11c-0.647,0.74-0.971,1.662-0.971,2.765v6.042H7.59V4.84h1.408l0.195,2.086h0.083
		c0.417-0.733,0.921-1.298,1.511-1.696C11.375,4.833,12.023,4.634,12.729,4.634z"/>
	<path d="M24.851,10.461c0,1.836-0.462,3.27-1.387,4.3c-0.925,1.031-2.203,1.547-3.833,1.547c-1.007,0-1.901-0.236-2.682-0.709
		c-0.781-0.473-1.384-1.151-1.809-2.035s-0.637-1.918-0.637-3.104c0-1.836,0.459-3.266,1.377-4.291
		c0.918-1.024,2.192-1.537,3.823-1.537c1.576,0,2.828,0.524,3.756,1.573C24.386,7.255,24.851,8.673,24.851,10.461z M16.27,10.461
		c0,1.438,0.288,2.535,0.863,3.288c0.576,0.754,1.421,1.131,2.539,1.131c1.116,0,1.964-0.375,2.543-1.125
		c0.579-0.75,0.869-1.848,0.869-3.293c0-1.432-0.29-2.52-0.869-3.263c-0.579-0.743-1.433-1.115-2.564-1.115
		c-1.117,0-1.959,0.367-2.528,1.1S16.27,9.009,16.27,10.461z"/>
	<path d="M34.496,16.103V8.817c0-0.918-0.209-1.603-0.627-2.055s-1.072-0.678-1.963-0.678c-1.178,0-2.042,0.318-2.59,0.956
		c-0.548,0.637-0.822,1.689-0.822,3.155v5.909h-1.706V4.84h1.387l0.278,1.542h0.082c0.35-0.555,0.839-0.985,1.47-1.29
		c0.63-0.305,1.332-0.458,2.106-0.458c1.356,0,2.377,0.328,3.062,0.981c0.685,0.654,1.027,1.701,1.027,3.14v7.348H34.496z"/>
	<path d="M42.292,14.901c0.302,0,0.593-0.022,0.874-0.067c0.281-0.044,0.504-0.091,0.668-0.139V16
		c-0.185,0.089-0.457,0.163-0.817,0.221c-0.359,0.058-0.683,0.087-0.971,0.087c-2.178,0-3.268-1.147-3.268-3.443v-6.7h-1.614V5.344
		l1.614-0.709l0.719-2.404h0.986v2.61h3.268v1.326h-3.268v6.628c0,0.678,0.161,1.199,0.483,1.562
		C41.288,14.719,41.73,14.901,42.292,14.901z"/>
	<path d="M49.79,16.309c-1.665,0-2.979-0.507-3.941-1.521c-0.962-1.014-1.444-2.422-1.444-4.224c0-1.815,0.447-3.258,1.341-4.326
		c0.894-1.069,2.095-1.604,3.602-1.604c1.411,0,2.528,0.464,3.35,1.393c0.822,0.929,1.233,2.153,1.233,3.674v1.079h-7.759
		c0.034,1.322,0.368,2.326,1.002,3.011s1.526,1.027,2.677,1.027c1.212,0,2.411-0.253,3.597-0.76v1.521
		c-0.603,0.26-1.173,0.447-1.711,0.56C51.199,16.252,50.55,16.309,49.79,16.309z M49.327,6.063c-0.904,0-1.625,0.294-2.163,0.884
		c-0.538,0.589-0.854,1.404-0.951,2.446h5.889c0-1.076-0.24-1.899-0.719-2.472C50.903,6.349,50.218,6.063,49.327,6.063z"/>
	<path d="M63.495,16.103V8.817c0-0.918-0.209-1.603-0.627-2.055s-1.072-0.678-1.963-0.678c-1.178,0-2.042,0.318-2.59,0.956
		c-0.548,0.637-0.822,1.689-0.822,3.155v5.909h-1.706V4.84h1.387l0.278,1.542h0.082c0.35-0.555,0.839-0.985,1.47-1.29
		c0.63-0.305,1.332-0.458,2.106-0.458c1.356,0,2.377,0.328,3.062,0.981C64.858,6.27,65.2,7.316,65.2,8.755v7.348H63.495z"/>
	<path d="M75.318,14.592h-0.093c-0.788,1.145-1.966,1.716-3.535,1.716c-1.473,0-2.619-0.503-3.438-1.511
		c-0.818-1.007-1.228-2.439-1.228-4.295s0.411-3.299,1.233-4.327c0.822-1.027,1.966-1.542,3.432-1.542
		c1.528,0,2.699,0.555,3.515,1.665h0.134l-0.072-0.812l-0.041-0.791V0.113h1.706v15.99h-1.387L75.318,14.592z M71.906,14.88
		c1.165,0,2.009-0.317,2.533-0.951c0.524-0.634,0.786-1.656,0.786-3.068v-0.359c0-1.596-0.266-2.735-0.796-3.417
		s-1.379-1.022-2.543-1.022c-1,0-1.766,0.389-2.297,1.167c-0.531,0.777-0.796,1.875-0.796,3.293c0,1.438,0.264,2.524,0.792,3.258
		C70.111,14.514,70.885,14.88,71.906,14.88z"/>
	<path d="M78.89,14.633c0-0.575,0.154-1.01,0.462-1.305c0.309-0.295,0.757-0.442,1.347-0.442c0.568,0,1.008,0.15,1.32,0.452
		c0.312,0.301,0.468,0.733,0.468,1.294c0,0.542-0.158,0.968-0.473,1.28c-0.315,0.312-0.753,0.467-1.315,0.467
		c-0.576,0-1.021-0.152-1.336-0.457C79.048,15.619,78.89,15.188,78.89,14.633z"/>
</g>
</svg>
