<svg width="250" height="250" viewBox="0 0 250 250" fill="none" xmlns="http://www.w3.org/2000/svg">
<path d="M125 142.487C134.658 142.487 142.487 134.658 142.487 125C142.487 115.342 134.658 107.513 125 107.513C115.342 107.513 107.513 115.342 107.513 125C107.513 134.658 115.342 142.487 125 142.487Z" fill="#6B54BD"/>
<path fill-rule="evenodd" clip-rule="evenodd" d="M41.4001 114.22C37.1792 118.031 35.4335 121.681 35.4335 125C35.4335 128.319 37.1792 131.969 41.4001 135.779C45.6205 139.589 51.967 143.216 60.1724 146.349C76.5538 152.603 99.4726 156.561 125 156.561C150.527 156.561 173.446 152.603 189.828 146.349C198.033 143.216 204.379 139.589 208.6 135.779C212.821 131.969 214.566 128.319 214.566 125C214.566 121.681 212.821 118.031 208.6 114.22C204.379 110.411 198.033 106.784 189.828 103.651C173.446 97.3964 150.527 93.4383 125 93.4383C99.4726 93.4383 76.5538 97.3964 60.1724 103.651C51.967 106.784 45.6205 110.411 41.4001 114.22ZM57.1297 95.6821C74.7086 88.9702 98.7055 84.9082 125 84.9082C151.294 84.9082 175.291 88.9702 192.87 95.6821C201.645 99.0325 209.04 103.126 214.316 107.889C219.591 112.651 223.097 118.426 223.097 125C223.097 131.574 219.591 137.349 214.316 142.111C209.04 146.874 201.645 150.967 192.87 154.318C175.291 161.03 151.294 165.092 125 165.092C98.7055 165.092 74.7086 161.03 57.1297 154.318C48.3549 150.967 40.9601 146.874 35.6842 142.111C30.4088 137.349 26.9033 131.574 26.9033 125C26.9033 118.426 30.4088 112.651 35.6842 107.889C40.9601 103.126 48.3549 99.0325 57.1297 95.6821Z" fill="#6B54BD"/>
<path fill-rule="evenodd" clip-rule="evenodd" d="M92.5352 47.2107C87.125 45.4604 83.0913 45.7735 80.2167 47.4332C77.342 49.0928 75.0541 52.4296 73.8647 57.9901C72.6755 63.55 72.7081 70.8595 74.0976 79.532C76.8716 96.8461 84.9032 118.673 97.6668 140.781C110.431 162.888 125.318 180.757 138.925 191.817C145.741 197.356 152.055 201.039 157.465 202.789C162.875 204.54 166.909 204.227 169.783 202.567C172.658 200.907 174.946 197.57 176.135 192.01C177.324 186.45 177.292 179.141 175.902 170.468C173.128 153.154 165.097 131.327 152.333 109.219C139.569 87.1119 124.682 69.2427 111.075 58.1833C104.259 52.6437 97.9448 48.9607 92.5352 47.2107ZM116.455 51.5637C131.057 63.4316 146.573 82.1826 159.72 104.954C172.868 127.726 181.348 150.539 184.325 169.119C185.811 178.393 185.963 186.844 184.477 193.794C182.99 200.744 179.741 206.667 174.048 209.954C168.355 213.241 161.601 213.093 154.839 210.905C148.077 208.718 140.834 204.36 133.545 198.436C118.943 186.568 103.427 167.817 90.2795 145.046C77.1323 122.274 68.6516 99.4612 65.6749 80.8815C64.189 71.6071 64.0366 63.1563 65.5233 56.2059C67.0098 49.2562 70.2584 43.3328 75.9516 40.0458C81.6448 36.7589 88.3989 36.9071 95.1608 39.0947C101.923 41.2824 109.166 45.6397 116.455 51.5637Z" fill="#6B54BD"/>
<path fill-rule="evenodd" clip-rule="evenodd" d="M176.135 57.99C174.946 52.4295 172.658 49.0927 169.783 47.433C166.909 45.7734 162.875 45.4603 157.465 47.2106C152.055 48.9606 145.741 52.6436 138.925 58.1832C125.318 69.2426 110.431 87.1118 97.6669 109.219C84.9032 131.326 76.8716 153.154 74.0977 170.468C72.7082 179.14 72.6756 186.45 73.8648 192.01C75.0541 197.57 77.3421 200.907 80.2167 202.567C83.0914 204.226 87.1251 204.539 92.5353 202.789C97.9449 201.039 104.259 197.356 111.075 191.817C124.682 180.757 139.569 162.888 152.333 140.781C165.097 118.673 173.128 96.846 175.902 79.5319C177.292 70.8594 177.324 63.5499 176.135 57.99ZM184.325 80.8814C181.348 99.4611 172.868 122.274 159.72 145.046C146.573 167.817 131.057 186.568 116.455 198.436C109.166 204.36 101.923 208.717 95.1609 210.905C88.399 213.093 81.6448 213.241 75.9517 209.954C70.2585 206.667 67.0098 200.744 65.5233 193.794C64.0367 186.844 64.189 178.393 65.6749 169.118C68.6517 150.539 77.1324 127.726 90.2796 104.954C103.427 82.1824 118.943 63.4314 133.545 51.5636C140.834 45.6396 148.077 41.2823 154.839 39.0946C161.601 36.907 168.355 36.7588 174.048 40.0457C179.741 43.3327 182.99 49.2561 184.477 56.2058C185.963 63.1562 185.811 71.607 184.325 80.8814Z" fill="#6B54BD"/>
</svg>
