<svg width="240" height="234" viewBox="0 0 240 234" fill="none" xmlns="http://www.w3.org/2000/svg">
<path d="M42.5 0H197.5C221 0 240 19 240 42.5V191.5C240 215 221 234 197.5 234H42.5C19 234 0 215 0 191.5V42.5C0 19 19 0 42.5 0Z" fill="#303030"/>
<path d="M97.2545 184C109.534 184 119.5 173.995 119.5 161.667V139.333H97.2545C84.9749 139.333 75.0089 149.339 75.0089 161.667C75.0089 173.995 84.9749 184 97.2545 184Z" fill="#0ACF83"/>
<path d="M75.0089 117C75.0089 104.672 84.9749 94.6667 97.2545 94.6667H119.5V139.333H97.2545C84.9749 139.333 75.0089 129.328 75.0089 117Z" fill="#A259FF"/>
<path d="M75.0089 72.3333C75.0089 60.0053 84.9749 50 97.2545 50H119.5V94.6667H97.2545C84.9749 94.6667 75.0089 84.6613 75.0089 72.3333Z" fill="#F24E1E"/>
<path d="M119.5 50H141.746C154.025 50 163.991 60.0053 163.991 72.3333C163.991 84.6613 154.025 94.6667 141.746 94.6667H119.5V50Z" fill="#FF7262"/>
<path d="M163.991 117C163.991 129.328 154.025 139.333 141.746 139.333C129.466 139.333 119.5 129.328 119.5 117C119.5 104.672 129.466 94.6667 141.746 94.6667C154.025 94.6667 163.991 104.672 163.991 117Z" fill="#1ABCFE"/>
</svg>
