<svg xmlns="http://www.w3.org/2000/svg" width="100" height="100"><path d="M88.9 0H11.2C7.3 0 3.8 3.2 3.8 7v.1l.3.8 7.8 70.3c.1 1 .5 2 1 2.8a6.9 6.9 0 003.2 3.1l31 15.2c1 .5 2.1.7 3.1.7s2.1-.2 3.1-.7l30.9-15.2c2.5-1.3 4-3.9 3.9-6.7l7.6-69.7.1-.8v-.1c.3-3.6-3-6.8-6.9-6.8zM45.5 55.9a5 5 0 010 7c-.9.9-2.2 1.4-3.5 1.4s-2.6-.5-3.5-1.4L25.8 50.2c-.1 0-.3-.1-.3-.3-.7-.7-1.4-1.6-1.4-2.6v-.4-.4a5 5 0 011.5-3.5l13-13a5 5 0 013.5-1.4 5 5 0 013.5 1.4c.9.9 1.4 2.2 1.4 3.5s-.5 2.6-1.4 3.5l-9.4 9.6 9.3 9.3zm32-9.4c.1 1.3-.3 2.5-1.3 3.5L63.4 62.9a5 5 0 01-3.5 1.4 5 5 0 01-3.5-1.4 5 5 0 010-7l9.3-9.3-9.4-9.3c-.9-.9-1.4-2.2-1.4-3.5s.5-2.6 1.4-3.5c.9-.9 2.2-1.4 3.5-1.4s2.6.5 3.5 1.4l12.6 12.6.3.3c.6.7 1 1.5 1.2 2.5v.2l.1.1v.5z" fill="#6f38b9"/></svg>